<?xml version="1.0" encoding="utf-8"?>
<!-- Generator: Adobe Illustrator 25.4.1, SVG Export Plug-In . SVG Version: 6.00 Build 0)  -->
<svg version="1.1" id="Layer_1" xmlns="http://www.w3.org/2000/svg" xmlns:xlink="http://www.w3.org/1999/xlink" x="0px" y="0px"
	 viewBox="0 0 220 40" style="enable-background:new 0 0 220 40;" xml:space="preserve">
<style type="text/css">
	.st0{fill:#2E3192;}
	.st1{fill:#939598;}
</style>
<g>
	<g>
		<path d="M47.9,27l2.8-1.7c0.9,2.3,2.9,3.6,5.2,3.6c2.7,0,5-1.7,5-4.9c0-3.7-3.3-5.7-7.2-4.5l4.8-8.5h-9.2V7.8h14.7l-5.3,9.1
			c3.1,0.4,6.2,3.1,6.2,7.4c0,4.9-3.9,8-8.7,8C51.9,32.2,49,30,47.9,27z"/>
		<path d="M74,11.3h-6.1V7.8h16v3.6h-6.1v20.6H74V11.3z"/>
		<path d="M83.4,23.1c0-6,4.4-9.2,8.9-9.2s9.4,3.2,8.5,10.6H87c0.6,3.1,3,4.6,6,4.6c1.9,0,3.6-0.6,4.9-1.8l1.8,1.8
			c-1.5,1.9-4.1,3.1-7.1,3.1C87.8,32.2,83.4,28.9,83.4,23.1z M97.5,21.7c-0.2-3.1-2.7-4.6-5.2-4.6c-2.5,0-4.9,1.5-5.4,4.6H97.5z"/>
		<path d="M103.8,23.1c0-6,4.6-9.2,9.3-9.2c3.1,0,6,1.5,7.6,4.4l-2.8,1.7c-1-1.6-2.8-2.7-4.8-2.7c-2.9,0-5.6,2.1-5.6,5.7
			c0,3.6,2.7,5.7,5.6,5.7c2,0,3.7-1,4.8-2.7l2.8,1.7c-1.6,2.9-4.5,4.4-7.6,4.4C108.5,32.2,103.8,29,103.8,23.1z"/>
		<path d="M124.4,7.8h3.7v9.1c1-1.6,2.8-3,5.7-3c3.6,0,6.8,2.3,6.8,7.6v10.4h-3.8v-9.8c0-3.1-1.7-4.8-4.3-4.8
			c-2.6,0-4.4,1.7-4.4,4.8v9.8h-3.7V7.8z"/>
		<path class="st0" d="M145.1,7.8h3.8l12.2,17.8h0.2V7.8h3.8v24.1h-3.9l-12.2-17.8H149v17.8h-3.8V7.8z"/>
		<path class="st0" d="M169,23.1c0-6,4.7-9.2,9.3-9.2s9.3,3.2,9.3,9.2s-4.7,9.2-9.3,9.2S169,29,169,23.1z M178.2,28.8
			c2.9,0,5.5-2.1,5.5-5.7c0-3.6-2.6-5.7-5.5-5.7s-5.5,2.1-5.5,5.7C172.7,26.7,175.3,28.8,178.2,28.8z"/>
		<path class="st0" d="M204,18.8L199,31.9h-3.5L189,14.2h3.7l4.6,13.1l4.9-13.1h3.5l4.9,13.1l4.6-13.1h3.8l-6.6,17.7h-3.5L204,18.8z
			"/>
	</g>
	<g>
		<path id="pPrYREv0F" class="st1" d="M14.1,38.8c-2.1-0.6-3.7-1.9-5.3-4.7c-8-13.8-7.9-13.5-7.7-15.8c0.2-2.5,1.7-4.8,3.8-6
			C5.5,12,6,11.8,6,11.8c0.1,0.2,2,3.3,2,3.3c0,0-0.2,0.1-0.6,0.2c-0.9,0.2-1.6,0.9-2.1,1.8c-0.5,1.1-0.6,2.2,0,3.2
			c0.5,1.1,7.1,12.4,7.6,13.3c1.2,1.8,4.4,2,5.6,0.3c0.2-0.3,2.1-3.5,4.2-7.2c3.8-6.6,3.8-6.6,3.9-7.9c0-0.7-0.1-1.4-0.2-1.6
			c-0.1-0.3,0-0.4,1.9-0.4h2.1l0.1,0.7c0.2,1.3,0,3-0.7,4.3c-1.5,3-8.1,14.2-8.8,14.8c-1.2,1.2-3,2-4.8,2.1
			C15.5,39,14.5,38.9,14.1,38.8z"/>
		<path id="pQNdRlAgq" class="st0" d="M25.9,38.7c-0.9-0.3-2.7-1.3-2.7-1.5c0-0.2,1.9-3.4,2-3.4c0.1,0,0.3,0.1,0.4,0.3
			c0.8,0.9,2.8,1.2,4,0.5c0.4-0.2,0.9-0.7,1.2-1.1c0.6-0.9,7.4-12.7,7.8-13.6c0.4-1.1,0.4-2.1-0.3-3.2c-1-1.6-0.9-1.6-10.3-1.6
			c-9,0-9.2,0-10.1,1.1c-0.2,0.3-0.5,0.5-0.5,0.5s-0.5-0.7-1.1-1.6c-1.1-1.8-1.1-1.9,0.3-2.8c1.7-1.1,2.3-1.1,11.8-1.1l8.8,0.1
			l1.3,0.7c1.6,0.8,2.9,2.1,3.6,3.7c0.4,1,0.6,1.5,0.5,2.9c0,1.2-0.1,2-0.3,2.5c-0.7,1.7-8.3,14.5-9,15.4c-1.2,1.3-3,2.2-5,2.3
			C27.3,39,26.4,38.9,25.9,38.7z"/>
		<path id="pEgphnDGG" class="st1" d="M18.7,27.8c-1.8-0.9-2.7-2-6.6-8.8c-5.2-9-4.8-8.2-4.8-10.6c0-1.8,0.1-2.2,0.6-3.2
			c0.7-1.5,2-2.8,3.6-3.6l1.2-0.6h9.3h9.3l1.2,0.6c2.6,1.3,4,3.5,4.2,6.4l0.1,1.7h-2h-2L32.8,9c0.3-1.7-1-3.7-2.6-4.2
			c-0.5-0.1-3.5-0.2-8.5-0.2c-7.2,0-7.8,0-8.5,0.4c-1,0.5-1.6,1.1-2,2.1c-0.4,1-0.4,1.5,0.2,2.7c0.8,1.8,7.5,13.3,8.1,13.9
			c0.3,0.3,0.9,0.7,1.4,0.8c0.4,0.1,0.9,0.3,1,0.4c0.2,0.1-1.3,2.9-1.8,3.3C19.8,28.3,19.4,28.2,18.7,27.8z"/>
	</g>
</g>
</svg>
